{"title":"Taylor Swift Ft. Kendrick Lamar - Bad Blood [MV] 1080p [Sbyky]","uid":12071600,"size":90921000,"categoryP":"video","categoryS":"music_videos","magnet":"?xt=urn:btih:ad10a9fb75be2e070286ac8c68574a41129b309b&amp;dn=Taylor+Swift+Ft.+Kendrick+Lamar+-+Bad+Blood+%5BMV%5D+1080p+%5BSbyky%5D&amp;tr=udp%3A%2F%2Ftracker.openbittorrent.com%3A80&amp;tr=udp%3A%2F%2Fopen.demonii.com%3A1337&amp;tr=udp%3A%2F%2Ftracker.coppersurfer.tk%3A6969&amp;tr=udp%3A%2F%2Fexodus.desync.com%3A6969","seeders":0,"leechers":2,"uploader":"Sbyky","files":1,"time":1435527743,"description":"General\nComplete name                            : Taylor Swift Ft. Kendrick Lamar - Bad Blood [Music Video] 1080p [Sbyky].mp4\nFormat                                   : MPEG-4\nFormat profile                           : Base Media\nCodec ID                                 : isom\nFile size                                : 86.7 MiB\nDuration                                 : 4mn 4s\nOverall bit rate mode                    : Variable\nOverall bit rate                         : 2 970 Kbps\nEncoded date                             : UTC 2015-05-18 02:41:01\nTagged date                              : UTC 2015-05-18 02:41:01\n\nVideo\nID                                       : 1\nFormat                                   : AVC\nFormat/Info                              : Advanced Video Codec\nFormat profile                           : &lt;a class=&quot;__cf_email__&quot; href=&quot;/cdn-cgi/l/email-protection&quot; data-cfemail=&quot;6f270608072f235b415f&quot;&gt;[email&amp;#160;protected]&lt;/a&gt;&lt;script data-cfhash='f9e31' type=&quot;text/javascript&quot;&gt;\n/* &lt;![CDATA[ */!function(){try{var t=&quot;currentScript&quot;in document?document.currentScript:function(){for(var t=document.getElementsByTagName(&quot;script&quot;),e=t.length;e--;)if(t[e].getAttribute(&quot;data-cfhash&quot;))return t[e]}();if(t&amp;&amp;t.previousSibling){var e,r,n,i,c=t.previousSibling,a=c.getAttribute(&quot;data-cfemail&quot;);if(a){for(e=&quot;&quot;,r=parseInt(a.substr(0,2),16),n=2;a.length-n;n+=2)i=parseInt(a.substr(n,2),16)^r,e+=String.fromCharCode(i);e=document.createTextNode(e),c.parentNode.replaceChild(e,c)}t.parentNode.removeChild(t);}}catch(u){}}()/* ]]&gt; */&lt;/script&gt;\nFormat settings, CABAC                   : Yes\nFormat settings, ReFrames                : 2 frames\nCodec ID                                 : avc1\nCodec ID/Info                            : Advanced Video Coding\nDuration                                 : 4mn 4s\nBit rate                                 : 2 841 Kbps\nWidth                                    : 1 920 pixels\nHeight                                   : 1 080 pixels\nDisplay aspect ratio                     : 16:9\nFrame rate mode                          : Variable\nFrame rate                               : 23.976 fps\nMinimum frame rate                       : 23.974 fps\nMaximum frame rate                       : 23.981 fps\nColor space                              : YUV\nChroma subsampling                       : 4:2:0\nBit depth                                : 8 bits\nScan type                                : Progressive\nBits/(Pixel*Frame)                       : 0.057\nStream size                              : 82.9 MiB (96%)\nEncoded date                             : UTC 2015-05-18 02:41:01\nTagged date                              : UTC 2015-05-18 02:41:01\n\nAudio\nID                                       : 2\nFormat                                   : AAC\nFormat/Info                              : Advanced Audio Codec\nFormat profile                           : LC\nCodec ID                                 : 40\nDuration                                 : 4mn 4s\nBit rate mode                            : Variable\nBit rate                                 : 126 Kbps\nChannel(s)                               : 2 channels\nChannel positions                        : Front: L R\nSampling rate                            : 44.1 KHz\nCompression mode                         : Lossy\nStream size                              : 3.67 MiB (4%)\nEncoded date                             : UTC 2015-05-18 02:39:46\nTagged date                              : UTC 2015-05-18 02:39:46\n\nShared By Sbyky\n[IMG]http://yuq.me/users/18/139/0aq32UMZvX.gif[/IMG]\n[IMG]http://yuq.me/users/18/139/bQg62viaEG.gif[/IMG]","torrent":{"xt":"urn:btih:ad10a9fb75be2e070286ac8c68574a41129b309b","amp;dn":"Taylor+Swift+Ft.+Kendrick+Lamar+-+Bad+Blood+%5BMV%5D+1080p+%5BSbyky%5D","amp;tr":["udp%3A%2F%2Ftracker.openbittorrent.com%3A80","udp%3A%2F%2Fopen.demonii.com%3A1337","udp%3A%2F%2Ftracker.coppersurfer.tk%3A6969","udp%3A%2F%2Fexodus.desync.com%3A6969"],"infoHash":"ad10a9fb75be2e070286ac8c68574a41129b309b","infoHashBuffer":{"type":"Buffer","data":[173,16,169,251,117,190,46,7,2,134,172,140,104,87,74,65,18,155,48,155]},"announce":[],"urlList":[]}}